<svg width="85" height="89" viewBox="0 0 85 89" fill="none" xmlns="http://www.w3.org/2000/svg">
<path d="M26.3944 19.3414C32.8641 33.0559 18.4315 49.7585 6.73307 41.5672C1.68757 38.0343 -0.0327884 31.1977 1.40588 25.0049C4.72919 10.7024 20.8411 7.56491 26.3944 19.3414Z" fill="#FAC663" fill-opacity="0.15"/>
<path d="M35.9113 29.3249C22.9713 20.2642 34.4268 -4.34223 49.2408 0.666517C55.9897 2.94903 59.6044 11.3423 56.6152 19.9653C53.2671 29.632 43.186 34.4186 35.9113 29.3249Z" fill="#FAC663" fill-opacity="0.15"/>
<path d="M11.9516 70.6261C14.0953 71.3895 17.5079 73.3039 20.8786 75.5954C24.4435 78.0148 27.9617 80.8538 29.8905 83.187C35.0921 89.4998 46.913 91.3157 51.2903 80.9617C55.3361 71.3891 48.5979 67.3776 52.6069 58.4281C56.6632 49.3864 53.4257 41.3852 47.4492 37.6487C41.9172 34.1911 34.0388 34.3887 27.4362 40.8061C20.4025 47.6458 14.3448 42.6907 6.73772 49.7656C-1.50687 57.4226 4.27746 67.899 11.9516 70.6261Z" fill="#FAC663" fill-opacity="0.15"/>
<path d="M58.685 45.2723C55.0247 42.7094 53.3643 38.3902 53.8874 33.9254C55.4442 20.65 73.3165 13.2774 81.0519 22.9528C90.8395 35.185 71.6179 54.328 58.685 45.2723Z" fill="#FAC663" fill-opacity="0.15"/>
<path d="M54.2021 64.1229C57.1395 51.0847 75.6514 45.6082 82.3315 56.0873C90.3783 68.7093 71.2213 85.4328 58.7636 76.7098C54.7656 73.9104 53.0853 69.0792 54.2021 64.1229Z" fill="#FAC663" fill-opacity="0.15"/>
</svg>
